<svg xmlns="http://www.w3.org/2000/svg" xmlns:xlink="http://www.w3.org/1999/xlink" viewBox="0 0 261.47 250.82"><defs><style>.cls-1{fill:url(#linear-gradient);}.cls-2{fill:url(#linear-gradient-2);}.cls-3{fill:url(#linear-gradient-3);}.cls-4{fill:url(#linear-gradient-4);}.cls-5{fill:url(#linear-gradient-5);}.cls-6{fill:url(#linear-gradient-6);}.cls-7{fill:url(#linear-gradient-7);}.cls-8{fill:url(#linear-gradient-8);}.cls-9{fill:url(#linear-gradient-9);}.cls-10{fill:url(#linear-gradient-10);}.cls-11{fill:url(#linear-gradient-11);}.cls-12{fill:url(#linear-gradient-12);}.cls-13{fill:url(#linear-gradient-13);}.cls-14{fill:url(#linear-gradient-14);}.cls-15{fill:url(#linear-gradient-15);}.cls-16{fill:url(#linear-gradient-16);}</style><linearGradient id="linear-gradient" x1="150.81" y1="151.93" x2="233.36" y2="151.93" gradientUnits="userSpaceOnUse"><stop offset="0" stop-color="#00b6ff"/><stop offset="0.83" stop-color="#0078ec"/><stop offset="1" stop-color="#006be8"/></linearGradient><linearGradient id="linear-gradient-2" x1="26.21" y1="102.53" x2="26.21" y2="74.47" xlink:href="#linear-gradient"/><linearGradient id="linear-gradient-3" x1="78.46" y1="102.53" x2="78.46" y2="74.47" gradientUnits="userSpaceOnUse"><stop offset="0" stop-color="#caff15"/><stop offset="0.32" stop-color="#8cf314"/><stop offset="1" stop-color="#00d812"/></linearGradient><linearGradient id="linear-gradient-4" x1="130.72" y1="102.53" x2="130.72" y2="74.47" xlink:href="#linear-gradient"/><linearGradient id="linear-gradient-5" x1="235.24" y1="102.53" x2="235.24" y2="74.47" xlink:href="#linear-gradient"/><linearGradient id="linear-gradient-6" x1="182.98" y1="102.53" x2="182.98" y2="74.47" xlink:href="#linear-gradient-3"/><linearGradient id="linear-gradient-7" x1="32.65" y1="74.47" x2="32.65" y2="0" xlink:href="#linear-gradient"/><linearGradient id="linear-gradient-8" x1="80.6" x2="80.6" y2="74.47" gradientUnits="userSpaceOnUse"><stop offset="0" stop-color="#00d812"/><stop offset="0.35" stop-color="#02d812"/><stop offset="0.49" stop-color="#09da12"/><stop offset="0.6" stop-color="#15dc12"/><stop offset="0.69" stop-color="#27e013"/><stop offset="0.76" stop-color="#3ee413"/><stop offset="0.83" stop-color="#5ae913"/><stop offset="0.89" stop-color="#7cf014"/><stop offset="0.95" stop-color="#a2f714"/><stop offset="1" stop-color="#caff15"/></linearGradient><linearGradient id="linear-gradient-9" x1="130.74" y1="74.47" x2="130.74" y2="0" xlink:href="#linear-gradient"/><linearGradient id="linear-gradient-10" x1="180.85" x2="180.85" y2="74.47" xlink:href="#linear-gradient-8"/><linearGradient id="linear-gradient-11" x1="228.81" y1="74.47" x2="228.81" y2="0" xlink:href="#linear-gradient"/><linearGradient id="linear-gradient-12" x1="20.41" y1="207.41" x2="20.41" y2="104.08" gradientUnits="userSpaceOnUse"><stop offset="0" stop-color="#00d812"/><stop offset="0.13" stop-color="#04d912"/><stop offset="0.27" stop-color="#11db12"/><stop offset="0.42" stop-color="#26df13"/><stop offset="0.56" stop-color="#44e513"/><stop offset="0.71" stop-color="#6aec14"/><stop offset="0.86" stop-color="#97f514"/><stop offset="1" stop-color="#caff15"/></linearGradient><linearGradient id="linear-gradient-13" x1="17.41" y1="225.68" x2="244.07" y2="225.68" xlink:href="#linear-gradient-12"/><linearGradient id="linear-gradient-14" x1="241.07" y1="104.07" x2="241.07" y2="168.62" xlink:href="#linear-gradient-12"/><linearGradient id="linear-gradient-15" x1="52.19" y1="189.52" x2="215.51" y2="189.52" xlink:href="#linear-gradient-12"/><linearGradient id="linear-gradient-16" x1="18.14" y1="199.71" x2="243.33" y2="199.71" xlink:href="#linear-gradient"/></defs><g id="Layer_2" data-name="Layer 2"><g id="Layer_1-2" data-name="Layer 1"><path class="cls-1" d="M207.78,151.15c6-1.55,13.61-3.12,16.91-2.4-3.4,6.23-8.74,9.39-15.67,7.9,7,6.34,9.26,16.27,7.88,25.74l-3.92,3.2c-7.83,6.4-18.2,9.65-30.82,9.65-10.53,0-21.36-2.18-31.35-5.15,1.65-4.67,3.67-8,6-7.74,7.26.84,39,1.49,43-11.66,0-.11,4.11-.6,6.58-3.43a9,9,0,0,1-4.89,1.45l-18.78,1.18a6.67,6.67,0,0,1-3.66-.45c-1.09-.59-3.57-3.12-3.72-4.31a3.07,3.07,0,0,1,1.81-2.86,24.65,24.65,0,0,1,3.38-1.2c4.81-1.75,7.42-6.86,11.35-10.14l.69-.54a5.75,5.75,0,0,0-1.89-1.46,13.16,13.16,0,0,0-4.91-1,111.14,111.14,0,0,0-12-.13,7,7,0,0,1-3-.3,2.25,2.25,0,0,1-1.47-2.36,1.49,1.49,0,0,1,1.85-1A25.52,25.52,0,0,1,161.78,126a12,12,0,0,1,.52-4.74c.09-.25.2-.5.31-.74a1,1,0,0,1,1.9.61,22.13,22.13,0,0,0,1.5,11.58,11.33,11.33,0,0,1,.86-4l.07-.13a1.2,1.2,0,0,1,2.24.77A14.06,14.06,0,0,0,182.63,146c-.41-1-1.52-1.58-2.22-2.44s-.66-2.87.75-2.69a1.63,1.63,0,0,1,1.24.93c1,1.92,3.17,2.62,5.21,2.93,3.61.54,5.91,1,8.53,3.65l.12.12c4-1.43,8.41-1.56,12.61-3.1,7.09-2.6,8.1-9.7,8.27-14.72a.57.57,0,0,1,1.11-.15c.77,2.62,1.15,7.58-.2,9.48,6.49-4.68,8.73-10.51,8.78-16.65A26.23,26.23,0,0,0,223,110.17a1,1,0,0,1,1.56-1.26,13.66,13.66,0,0,1,4.42,10,17.87,17.87,0,0,0,1.92-4.78.73.73,0,0,1,1.43.14,22.35,22.35,0,0,1-4,13.93c.64-.24,2-1.34,3.32-2a1.18,1.18,0,0,1,1.42,1.81C222.24,141.46,217.15,147.46,207.78,151.15Z"/><g id="Market"><path class="cls-2" d="M52.33,74.47c0,15.5-11.69,28.06-26.12,28.06S.08,90,.08,74.47Z"/><path class="cls-3" d="M104.59,74.47c0,15.5-11.7,28.06-26.13,28.06S52.33,90,52.33,74.47Z"/><path class="cls-4" d="M156.85,74.47c0,15.5-11.7,28.06-26.13,28.06S104.59,90,104.59,74.47Z"/><path class="cls-5" d="M261.37,74.47c0,15.5-11.7,28.06-26.13,28.06S209.11,90,209.11,74.47Z"/><path class="cls-6" d="M209.11,74.47c0,15.5-11.7,28.06-26.13,28.06S156.85,90,156.85,74.47Z"/><polygon class="cls-7" points="52.3 74.47 0 74.47 21.67 0 65.29 0 52.3 74.47"/><polygon class="cls-8" points="104.59 74.47 52.3 74.47 65.29 0 108.91 0 104.59 74.47"/><polygon class="cls-9" points="156.88 74.47 104.59 74.47 108.91 0 152.53 0 156.88 74.47"/><polygon class="cls-10" points="209.18 74.47 156.88 74.47 152.53 0 196.15 0 209.18 74.47"/><polygon class="cls-11" points="261.47 74.47 209.18 74.47 196.15 0 239.77 0 261.47 74.47"/><path class="cls-12" d="M23.41,105.39v92.2a44.44,44.44,0,0,0-6,9.82V104.08A27.31,27.31,0,0,0,23.41,105.39Z"/><path class="cls-13" d="M244.07,200.55v21.26a29.05,29.05,0,0,1-29,29H46.42a29.05,29.05,0,0,1-29-29v-2.66l3-3.37c1-1.16,2-2.28,3-3.35v9.38a23,23,0,0,0,23,23H215.06a23,23,0,0,0,23-23v-7.38A58.35,58.35,0,0,0,244.07,200.55Z"/><path class="cls-14" d="M244.07,104.07v64.55a48.21,48.21,0,0,0-3.1-8.34l-2.9-5.64V105.38A27.31,27.31,0,0,0,244.07,104.07Z"/></g><path class="cls-15" d="M124.1,184.48c-10.41-4.47-20.23-10.75-31.34-13-26.8-5.34-39,6.85-40.57,8.1,6.49-2.47,13.68-2.46,20.55-1.43,24.53,3.67,45.64,19.24,69.53,25.92,52.88,14.79,70.14-9,73.24-15.42C188.69,210.59,143.74,192.9,124.1,184.48Z"/><path class="cls-16" d="M18.46,213c6-18.6,23.33-29.92,42.88-29.4,17.18.45,33.11,7.42,48.29,14.12,30.1,13.29,65.11,22.83,97.35,11.4,19.65-7,35.07-25.81,31.32-47.47a55,55,0,0,1-6.92,57.23c-9,11.41-22.59,16.45-36.4,18.16-17.95,2.23-36.39-.89-53.74-6-15.52-4.61-30-11.93-44.57-18.9a282.63,282.63,0,0,0-30.29-13c-8-2.76-16.62-4.68-25-2.48-10.11,2.64-16.55,9.59-23.21,17.13Z"/></g></g></svg>